# AST/ASF file generated using VICON BodyLanguage
# -----------------------------------------------
:version 1.10
:name VICON
:units
  mass 1.0
  length 0.45
  angle deg
:documentation
   .ast/.asf automatically generated from VICON data using
   VICON BodyBuilder and BodyLanguage model FoxedUp or BRILLIANT.MOD
:root
   order TX TY TZ RX RY RZ
   axis XYZ
   position 0 0 0  
   orientation 0 0 0 
:bonedata
  begin
     id 1 
     name lhipjoint
     direction 0.61522 -0.761478 0.204097 
     length 2.55743 
     axis 0 0 0  XYZ
  end
  begin
     id 2 
     name lfemur
     direction 0.34202 -0.939693 0  
     length 7.61162  
     axis 0 0 20  XYZ
    dof rx ry rz
    limits (-160.0 20.0)
           (-70.0 70.0)
           (-60.0 70.0)
  end
  begin
     id 3 
     name ltibia
     direction 0.34202 -0.939693 0   
     length 8.12393   
     axis 0 0 20   XYZ
    dof rx
    limits (-10.0 170.0)
  end
  begin
     id 4 
     name lfoot
     direction 0.0841971 -0.23133 0.969225   
     length 2.3572   
     axis -90 7.62852e-016 20   XYZ
    dof rx rz
    limits (-45.0 90.0)
           (-70.0 20.0)
  end
  begin
     id 5 
     name ltoes
     direction 1.53562e-011 -4.22209e-011 1   
     length 1.17993   
     axis -90 7.62852e-016 20   XYZ
    dof rx
    limits (-90.0 20.0)
  end
  begin
     id 6 
     name rhipjoint
     direction -0.625247 -0.75382 0.202044   
     length 2.58341  
     axis 0 0 0  XYZ 
  end
  begin
     id 7 
     name rfemur
     direction -0.34202 -0.939693 0   
     length 7.42147   
     axis 0 0 -20   XYZ
    dof rx ry rz
    limits (-160.0 20.0)
           (-70.0 70.0)
           (-70.0 60.0)
  end
  begin
     id 8 
     name rtibia
     direction -0.34202 -0.939693 0   
     length 8.20893   
     axis 0 0 -20   XYZ
    dof rx
    limits (-10.0 170.0)
 end
 begin
     id 9 
     name rfoot
     direction -0.124331 -0.341598 0.931586   
     length 2.45604  
     axis -90 -7.62852e-016 -20   XYZ
    dof rx rz
    limits (-45.0 90.0)
           (-20.0 70.0)
  end
  begin
     id 10 
     name rtoes
     direction -1.5353e-011 -4.2199e-011 1   
     length 1.21323   
     axis -90 -7.62852e-016 -20   XYZ
    dof rx
    limits (-90.0 20.0)
  end
  begin
     id 11 
     name lowerback
     direction -0.0218484 0.994884 -0.0986303   
     length 2.00523   
     axis 0 0 0   XYZ
    dof rx ry rz
    limits (-20.0 45.0)
           (-30.0 30.0)
           (-30.0 30.0)
  end
  begin
     id 12 
     name upperback
     direction -0.0097305 0.999717 -0.0217111   
     length 2.01352   
     axis 0 0 0   XYZ
    dof rx ry rz
    limits (-20.0 45.0)
           (-30.0 30.0)
           (-30.0 30.0)
  end
  begin
     id 13 
     name thorax
     direction -0.000928262 0.999699 0.0245198   
     length 2.02938   
     axis 0 0 0   XYZ
    dof rx ry rz
    limits (-20.0 45.0)
           (-30.0 30.0)
           (-30.0 30.0)
  end
  begin
     id 14 
     name lowerneck
     direction -0.0307979 0.998024 0.0547665   
     length 1.77263   
     axis 0 0 0   XYZ
    dof rx ry rz
    limits (-20.0 45.0)
           (-30.0 30.0)
           (-30.0 30.0)
  end
  begin
     id 15 
     name upperneck
     direction 0.0531587 0.996611 -0.0627734   
     length 1.77971   
     axis 0 0 0   XYZ
    dof rx ry rz
    limits (-20.0 45.0)
           (-30.0 30.0)
           (-30.0 30.0)
  end
  begin
     id 16
     name head
     direction 0.0213833 0.999404 -0.0271147  
     length 1.78263  
     axis 0 0 0   XYZ
    dof rx ry rz
    limits (-20.0 45.0)
           (-30.0 30.0)
           (-30.0 30.0)
  end
  begin
     id 17 
     name lclavicle
     direction 0.940017 0.332249 -0.0773233  
     length 3.73315  
     axis 0 0 0   XYZ
    dof ry rz
    limits (-20.0 10.0)
           (0.0 20.0)
  end
  begin
     id 18 
     name lhumerus
     direction 1 -4.48944e-011 7.52288e-028   
     length 5.40188   
     axis 180 -30 -90   XYZ
    dof rx ry rz
    limits (-60.0 90.0)
           (-90.0 90.0)
           (-90.0 90.0)
  end
  begin
     id 19
     name lradius
     direction 1 -4.48988e-011 1.48381e-027   
     length 3.68559   
     axis 180 -30 -90   XYZ
    dof rx
    limits (-10.0 170.0)
  end
  begin
     id 20
     name lwrist
     direction 1 -4.48925e-011 2.56952e-028   
     length 1.84279   
     axis -5.12785e-016 90 90   XYZ
    dof ry
    limits (-180.0 0.0)
 end
  begin
     id 21 
     name lhand
     direction 1 -4.49009e-011 5.13905e-028   
     length 0.61753   
     axis -3.27915e-016 90 90   XYZ
    dof rx rz
    limits (-90.0 90.0)
           (-45.0 45.0)
  end
  begin
     id 22 
     name lfingers
     direction 1 -4.49012e-011 1.02781e-027   
     length 0.497868   
     axis -6.5583e-016 90 90   XYZ
    dof rx
    limits (0.0 90.0)
  end
  begin
     id 23
     name lthumb
     direction 0.707107 -6.34987e-011 0.707107   
     length 0.714842   
     axis -90 45 2.85299e-015   XYZ
    dof rx rz
    limits (-45.0 45.0)
           (-45.0 45.0)
  end
  begin
     id 24 
     name rclavicle
     direction -0.9009 0.425937 -0.0834057   
     length 3.27864  
     axis 0 0 0   XYZ 
    dof ry rz
    limits (-10.0 20.0)
           (-20.0 0.0)
  end
  begin
     id 25 
     name rhumerus
     direction -1 -4.48953e-011 -1.03572e-027  
     length 6.1067   
     axis 180 30 90   XYZ
    dof rx ry rz
    limits (-90.0 60.0)
           (-90.0 90.0)
           (-90.0 90.0)
  end
  begin
     id 26 
     name rradius
     direction -1 -4.48975e-011 1.20742e-027   
     length 3.63052   
     axis 180 30 90   XYZ
    dof rx
    limits (-10.0 170.0)
  end
  begin
     id 27 
     name rwrist
     direction -1 -4.49017e-011 2.56952e-028   
     length 1.81526   
     axis -5.12785e-016 -90 -90   XYZ
    dof ry
    limits (-180.0 0.0)
  end
  begin
     id 28
     name rhand
     direction -1 -4.48832e-011 5.13905e-028   
     length 0.583848   
     axis -3.27915e-016 -90 -90   XYZ
    dof rx rz
    limits (-90.0 90.0)
           (-45.0 45.0)
  end
  begin
     id 29
     name rfingers
     direction -1 -4.48729e-011 1.02781e-027   
     length 0.470713   
     axis -6.5583e-016 -90 -90   XYZ
    dof rx
    limits (0.0 90.0)
  end
  begin
     id 30
     name rthumb
     direction -0.707107 -6.34964e-011 0.707107   
     length 0.675852   
     axis -90 -45 -2.85299e-015   XYZ
    dof rx rz
    limits (-45.0 45.0)
           (-45.0 45.0)
  end
:hierarchy
  begin
    root lhipjoint rhipjoint lowerback
    lhipjoint lfemur
    lfemur ltibia
    ltibia lfoot
    lfoot ltoes
    rhipjoint rfemur
    rfemur rtibia
    rtibia rfoot
    rfoot rtoes
    lowerback upperback
    upperback thorax
    thorax lowerneck lclavicle rclavicle
    lowerneck upperneck
    upperneck head
    lclavicle lhumerus
    lhumerus lradius
    lradius lwrist
    lwrist lhand lthumb
    lhand lfingers
    rclavicle rhumerus
    rhumerus rradius
    rradius rwrist
    rwrist rhand rthumb
    rhand rfingers
  end

#!OML:ASF F:\VICON\USERDATA\INSTALL\rory3\rory3.ASF
:FULLY-SPECIFIED
:DEGREES
718
root -0.329817 18.2299 3.07783 -2.62904 -11.0824 2.18599
lowerback 6.63946 1.84588 -2.36078
upperback -0.0863368 2.20293 -1.78947
thorax -3.83125 1.12051 -0.742355
lowerneck -14.3125 -0.261977 -5.51866
upperneck 11.1879 -0.49362 8.89752
head 5.76175 0.204286 3.69191
rclavicle 2.18787e-014 -3.18055e-015
rhumerus 10.6677 24.8501 -26.3901
rradius 92.5446
rwrist 17.2238
rhand -39.4426 15.7903
rfingers 7.12502
rthumb -12.4304 -13.8201
lclavicle 2.18787e-014 -3.18055e-015
lhumerus -1.76073 -19.6243 26.4572
lradius 90.2432
lwrist -2.55951
lhand -29.0462 11.631
lfingers 7.12502
lthumb -2.39629 41.5972
rfemur -10.2082 30.1425 5.0223
rtibia 26.5516
rfoot -17.0608 -9.93861
rtoes -13.9047
lfemur 0.382552 -3.34235 -10.2474
ltibia 22.0208
lfoot -17.6622 17.4782
ltoes -11.303
719
root -0.321842 18.2246 3.07668 -2.68141 -11.7364 2.34526
lowerback 6.6607 1.91929 -2.46171
upperback -0.0555315 2.29172 -1.81072
thorax -3.81499 1.16591 -0.716825
lowerneck -14.3736 -0.211105 -5.4975
upperneck 11.1939 -0.438336 8.9759
head 5.77001 0.239366 3.71933
rclavicle 5.72562e-014 3.57812e-015
rhumerus 10.813 24.6903 -26.3189
rradius 92.473
rwrist 17.042
rhand -39.4206 16.0495
rfingers 7.12502
rthumb -12.4092 -13.5622
lclavicle 5.72562e-014 3.57812e-015
lhumerus -1.66612 -19.9479 26.2726
lradius 90.1407
lwrist -2.38633
lhand -29.2663 11.5643
lfingers 7.12502
lthumb -2.60888 41.5281
rfemur -10.5605 30.3527 4.67584
rtibia 26.528
rfoot -16.8837 -9.51313
rtoes -14.0337
lfemur 0.531695 -2.97084 -10.4664
ltibia 22.1011
lfoot -17.8676 17.7792
ltoes -11.4715
720
root -0.314 18.2212 3.0746 -2.6639 -12.3348 2.30126
lowerback 6.66905 1.93697 -2.33523
upperback -0.0334548 2.32586 -1.7976
thorax -3.79241 1.18041 -0.777054
lowerneck -14.4492 -0.140075 -5.35011
upperneck 11.2211 -0.36474 8.92862
head 5.78551 0.279803 3.68729
rclavicle -9.72802e-015 4.37326e-015
rhumerus 10.9212 24.4551 -26.4085
rradius 92.2847
rwrist 17.0353
rhand -39.7953 16.6606
rfingers 7.12502
rthumb -12.7704 -12.9289
lclavicle -9.72802e-015 4.37326e-015
lhumerus -1.4741 -20.0734 26.1576
lradius 90.0111
lwrist -1.91499
lhand -29.6408 11.494
lfingers 7.12502
lthumb -2.97057 41.4531
rfemur -10.9517 30.5782 4.55094
rtibia 26.5413
rfoot -16.7458 -9.13784
rtoes -14.1957
lfemur 0.637683 -2.6507 -10.4505
ltibia 22.1834
lfoot -18.0942 18.0028
ltoes -11.2925
721
root -0.304455 18.2215 3.07316 -2.62653 -12.8906 2.22108
lowerback 6.64227 1.9246 -2.14671
upperback -0.00418248 2.32643 -1.78199
thorax -3.73997 1.17713 -0.864454
lowerneck -14.4674 -0.079657 -5.23934
upperneck 11.2268 -0.303156 8.91081
head 5.78572 0.313567 3.66888
rclavicle 2.3643e-014 -7.95139e-016
rhumerus 10.9838 24.2709 -26.3697
rradius 92.2326
rwrist 16.9761
rhand -40.2219 16.8296
rfingers 7.12502
rthumb -13.1816 -12.7337
lclavicle 2.3643e-014 -7.95139e-016
lhumerus -1.2596 -20.2907 25.9631
lradius 89.8606
lwrist -1.71021
lhand -29.7105 11.5964
lfingers 7.12502
lthumb -3.03786 41.5545
rfemur -11.205 30.7022 4.46593
rtibia 26.5639
rfoot -16.7957 -8.56809
rtoes -13.6202
lfemur 0.713901 -2.31773 -10.3954
ltibia 22.3012
lfoot -18.3483 18.0606
ltoes -10.4925
